<svg width="77" height="20" viewBox="0 0 77 20" fill="none" xmlns="http://www.w3.org/2000/svg">
<path d="M15.106 4.088H18.97C19.3433 4.088 19.712 4.13467 20.076 4.228C20.44 4.312 20.762 4.45667 21.042 4.662C21.3313 4.858 21.5647 5.11467 21.742 5.432C21.9193 5.74933 22.008 6.132 22.008 6.58C22.008 7.14 21.8493 7.602 21.532 7.966C21.2147 8.33 20.7993 8.59133 20.286 8.75V8.778C20.594 8.81533 20.8787 8.904 21.14 9.044C21.4107 9.17467 21.6393 9.34733 21.826 9.562C22.0127 9.76733 22.1573 10.01 22.26 10.29C22.372 10.5607 22.428 10.8547 22.428 11.172C22.428 11.7133 22.3207 12.166 22.106 12.53C21.8913 12.8847 21.6067 13.174 21.252 13.398C20.9067 13.6127 20.5053 13.7667 20.048 13.86C19.6 13.9533 19.1427 14 18.676 14H15.106V4.088ZM16.87 8.12H18.48C19.068 8.12 19.5067 8.008 19.796 7.784C20.0947 7.55067 20.244 7.24733 20.244 6.874C20.244 6.44467 20.09 6.12733 19.782 5.922C19.4833 5.70733 18.998 5.6 18.326 5.6H16.87V8.12ZM16.87 12.488H18.494C18.718 12.488 18.956 12.474 19.208 12.446C19.4693 12.418 19.7073 12.3527 19.922 12.25C20.1367 12.1473 20.314 12.0027 20.454 11.816C20.594 11.62 20.664 11.3587 20.664 11.032C20.664 10.5093 20.4913 10.1453 20.146 9.94C19.81 9.73467 19.2827 9.632 18.564 9.632H16.87V12.488ZM28.2301 13.076H28.1881C27.9455 13.4587 27.6375 13.7387 27.2641 13.916C26.8908 14.084 26.4801 14.168 26.0321 14.168C25.7241 14.168 25.4208 14.126 25.1221 14.042C24.8328 13.958 24.5715 13.832 24.3381 13.664C24.1141 13.496 23.9321 13.286 23.7921 13.034C23.6521 12.782 23.5821 12.488 23.5821 12.152C23.5821 11.788 23.6475 11.48 23.7781 11.228C23.9088 10.9667 24.0815 10.752 24.2961 10.584C24.5201 10.4067 24.7768 10.2667 25.0661 10.164C25.3555 10.0613 25.6541 9.98667 25.9621 9.94C26.2795 9.884 26.5968 9.85133 26.9141 9.842C27.2315 9.82333 27.5301 9.814 27.8101 9.814H28.2301V9.632C28.2301 9.212 28.0855 8.89933 27.7961 8.694C27.5068 8.47933 27.1381 8.372 26.6901 8.372C26.3355 8.372 26.0041 8.43733 25.6961 8.568C25.3881 8.68933 25.1221 8.85733 24.8981 9.072L24.0161 8.19C24.3895 7.80733 24.8235 7.532 25.3181 7.364C25.8221 7.196 26.3401 7.112 26.8721 7.112C27.3481 7.112 27.7495 7.168 28.0761 7.28C28.4028 7.38267 28.6735 7.518 28.8881 7.686C29.1028 7.854 29.2661 8.05 29.3781 8.274C29.4995 8.48867 29.5835 8.708 29.6301 8.932C29.6861 9.156 29.7188 9.37533 29.7281 9.59C29.7375 9.79533 29.7421 9.97733 29.7421 10.136V14H28.2301V13.076ZM28.1321 10.99H27.7821C27.5488 10.99 27.2875 10.9993 26.9981 11.018C26.7088 11.0367 26.4335 11.0833 26.1721 11.158C25.9201 11.2233 25.7055 11.326 25.5281 11.466C25.3508 11.5967 25.2621 11.7833 25.2621 12.026C25.2621 12.1847 25.2948 12.32 25.3601 12.432C25.4348 12.5347 25.5281 12.6233 25.6401 12.698C25.7521 12.7727 25.8781 12.8287 26.0181 12.866C26.1581 12.894 26.2981 12.908 26.4381 12.908C27.0168 12.908 27.4415 12.7727 27.7121 12.502C27.9921 12.222 28.1321 11.844 28.1321 11.368V10.99ZM36.1417 9.296C35.9457 9.09067 35.7403 8.92733 35.5257 8.806C35.311 8.68467 35.0917 8.624 34.8677 8.624C34.5597 8.624 34.2843 8.68 34.0417 8.792C33.799 8.904 33.589 9.05333 33.4117 9.24C33.2437 9.42667 33.113 9.64133 33.0197 9.884C32.9357 10.1267 32.8937 10.3787 32.8937 10.64C32.8937 10.9013 32.9357 11.1533 33.0197 11.396C33.113 11.6387 33.2437 11.8533 33.4117 12.04C33.589 12.2267 33.799 12.376 34.0417 12.488C34.2843 12.6 34.5597 12.656 34.8677 12.656C35.129 12.656 35.3717 12.6047 35.5957 12.502C35.8197 12.39 36.011 12.2313 36.1697 12.026L37.2897 13.23C37.1217 13.398 36.9257 13.5427 36.7017 13.664C36.487 13.7853 36.2677 13.8833 36.0437 13.958C35.8197 14.0327 35.605 14.084 35.3997 14.112C35.1943 14.1493 35.017 14.168 34.8677 14.168C34.3637 14.168 33.8877 14.084 33.4397 13.916C32.9917 13.748 32.6043 13.51 32.2777 13.202C31.951 12.894 31.6897 12.5253 31.4937 12.096C31.307 11.6573 31.2137 11.172 31.2137 10.64C31.2137 10.108 31.307 9.62733 31.4937 9.198C31.6897 8.75933 31.951 8.386 32.2777 8.078C32.6043 7.77 32.9917 7.532 33.4397 7.364C33.8877 7.196 34.3637 7.112 34.8677 7.112C35.297 7.112 35.7263 7.196 36.1557 7.364C36.5943 7.52267 36.977 7.77933 37.3037 8.134L36.1417 9.296ZM38.3036 3.416H39.9836V10.066L42.5736 7.28H44.7296L41.8456 10.332L44.9116 14H42.6856L40.0116 10.57H39.9836V14H38.3036V3.416Z" fill="#194069"/>
<path d="M6 14L2 9L6 4" stroke="#194069" stroke-width="2" stroke-linecap="round" stroke-linejoin="round"/>
</svg>
