<svg width="220" height="74" viewBox="0 0 220 74" fill="none" xmlns="http://www.w3.org/2000/svg">
<rect x="173.5" y="41.5" width="46" height="32" stroke="#D6D6D6"/>
<path d="M200.075 62H194.405C193.686 62 193.019 61.874 192.403 61.622C191.796 61.37 191.269 61.02 190.821 60.572C190.373 60.1147 190.023 59.578 189.771 58.962C189.519 58.3367 189.393 57.6553 189.393 56.918C189.393 56.1807 189.519 55.504 189.771 54.888C190.023 54.2627 190.373 53.726 190.821 53.278C191.269 52.8207 191.796 52.466 192.403 52.214C193.019 51.962 193.686 51.836 194.405 51.836C195.114 51.836 195.772 51.962 196.379 52.214C196.995 52.466 197.527 52.8207 197.975 53.278C198.423 53.726 198.773 54.2627 199.025 54.888C199.277 55.504 199.403 56.1807 199.403 56.918C199.403 57.814 199.216 58.6213 198.843 59.34C198.479 60.0493 197.891 60.6187 197.079 61.048V61.076H200.075V62ZM190.485 56.918C190.485 57.4687 190.573 57.996 190.751 58.5C190.928 58.9947 191.185 59.4333 191.521 59.816C191.857 60.1987 192.267 60.5067 192.753 60.74C193.238 60.964 193.789 61.076 194.405 61.076C195.011 61.076 195.557 60.964 196.043 60.74C196.528 60.5067 196.939 60.1987 197.275 59.816C197.611 59.4333 197.867 58.9947 198.045 58.5C198.222 57.996 198.311 57.4687 198.311 56.918C198.311 56.3673 198.222 55.8447 198.045 55.35C197.867 54.846 197.611 54.4027 197.275 54.02C196.939 53.6373 196.528 53.334 196.043 53.11C195.557 52.8767 195.011 52.76 194.405 52.76C193.789 52.76 193.238 52.8767 192.753 53.11C192.267 53.334 191.857 53.6373 191.521 54.02C191.185 54.4027 190.928 54.846 190.751 55.35C190.573 55.8447 190.485 56.3673 190.485 56.918ZM205.212 53.096H205.184L201.768 58.724H205.212V53.096ZM206.22 58.724H207.648V59.648H206.22V62H205.212V59.648H200.928V58.5L204.932 52.088H206.22V58.724Z" fill="#383B41"/>
<rect x="127.5" y="41.5" width="46" height="32" stroke="#D6D6D6"/>
<path d="M154.075 62H148.405C147.686 62 147.019 61.874 146.403 61.622C145.796 61.37 145.269 61.02 144.821 60.572C144.373 60.1147 144.023 59.578 143.771 58.962C143.519 58.3367 143.393 57.6553 143.393 56.918C143.393 56.1807 143.519 55.504 143.771 54.888C144.023 54.2627 144.373 53.726 144.821 53.278C145.269 52.8207 145.796 52.466 146.403 52.214C147.019 51.962 147.686 51.836 148.405 51.836C149.114 51.836 149.772 51.962 150.379 52.214C150.995 52.466 151.527 52.8207 151.975 53.278C152.423 53.726 152.773 54.2627 153.025 54.888C153.277 55.504 153.403 56.1807 153.403 56.918C153.403 57.814 153.216 58.6213 152.843 59.34C152.479 60.0493 151.891 60.6187 151.079 61.048V61.076H154.075V62ZM144.485 56.918C144.485 57.4687 144.573 57.996 144.751 58.5C144.928 58.9947 145.185 59.4333 145.521 59.816C145.857 60.1987 146.267 60.5067 146.753 60.74C147.238 60.964 147.789 61.076 148.405 61.076C149.011 61.076 149.557 60.964 150.043 60.74C150.528 60.5067 150.939 60.1987 151.275 59.816C151.611 59.4333 151.867 58.9947 152.045 58.5C152.222 57.996 152.311 57.4687 152.311 56.918C152.311 56.3673 152.222 55.8447 152.045 55.35C151.867 54.846 151.611 54.4027 151.275 54.02C150.939 53.6373 150.528 53.334 150.043 53.11C149.557 52.8767 149.011 52.76 148.405 52.76C147.789 52.76 147.238 52.8767 146.753 53.11C146.267 53.334 145.857 53.6373 145.521 54.02C145.185 54.4027 144.928 54.846 144.751 55.35C144.573 55.8447 144.485 56.3673 144.485 56.918ZM157.252 56.344H157.77C158.06 56.344 158.335 56.3113 158.596 56.246C158.867 56.1807 159.1 56.078 159.296 55.938C159.492 55.7887 159.646 55.5973 159.758 55.364C159.88 55.1307 159.94 54.8507 159.94 54.524C159.94 53.992 159.777 53.5813 159.45 53.292C159.133 52.9933 158.685 52.844 158.106 52.844C157.686 52.844 157.318 52.9373 157 53.124C156.683 53.3107 156.422 53.5813 156.216 53.936L155.334 53.488C155.633 52.956 156.011 52.564 156.468 52.312C156.935 52.0507 157.472 51.92 158.078 51.92C158.47 51.92 158.839 51.976 159.184 52.088C159.53 52.2 159.833 52.368 160.094 52.592C160.356 52.8067 160.561 53.0773 160.71 53.404C160.869 53.7213 160.948 54.0853 160.948 54.496C160.948 54.7667 160.902 55.0233 160.808 55.266C160.724 55.5087 160.603 55.728 160.444 55.924C160.295 56.12 160.118 56.2927 159.912 56.442C159.707 56.582 159.492 56.6893 159.268 56.764L159.31 56.792C159.59 56.848 159.847 56.9553 160.08 57.114C160.314 57.2633 160.514 57.45 160.682 57.674C160.85 57.898 160.981 58.15 161.074 58.43C161.168 58.71 161.214 59.004 161.214 59.312C161.214 59.7693 161.13 60.1753 160.962 60.53C160.794 60.8847 160.566 61.1833 160.276 61.426C159.987 61.6687 159.651 61.8553 159.268 61.986C158.886 62.1073 158.48 62.168 158.05 62.168C157.322 62.168 156.688 62.0093 156.146 61.692C155.605 61.3747 155.199 60.866 154.928 60.166L155.992 59.844C156.16 60.32 156.408 60.6747 156.734 60.908C157.07 61.132 157.537 61.244 158.134 61.244C158.414 61.244 158.68 61.1973 158.932 61.104C159.184 61.0107 159.404 60.88 159.59 60.712C159.786 60.5347 159.936 60.3247 160.038 60.082C160.15 59.8393 160.206 59.5733 160.206 59.284C160.206 58.9107 160.136 58.598 159.996 58.346C159.856 58.0847 159.67 57.8747 159.436 57.716C159.203 57.5573 158.932 57.4453 158.624 57.38C158.326 57.3053 158.013 57.268 157.686 57.268H157.252V56.344Z" fill="#383B41"/>
<rect x="81.5" y="41.5" width="46" height="32" stroke="#D6D6D6"/>
<path d="M108.075 62H102.405C101.686 62 101.019 61.874 100.403 61.622C99.796 61.37 99.2687 61.02 98.8207 60.572C98.3727 60.1147 98.0227 59.578 97.7707 58.962C97.5187 58.3367 97.3927 57.6553 97.3927 56.918C97.3927 56.1807 97.5187 55.504 97.7707 54.888C98.0227 54.2627 98.3727 53.726 98.8207 53.278C99.2687 52.8207 99.796 52.466 100.403 52.214C101.019 51.962 101.686 51.836 102.405 51.836C103.114 51.836 103.772 51.962 104.379 52.214C104.995 52.466 105.527 52.8207 105.975 53.278C106.423 53.726 106.773 54.2627 107.025 54.888C107.277 55.504 107.403 56.1807 107.403 56.918C107.403 57.814 107.216 58.6213 106.843 59.34C106.479 60.0493 105.891 60.6187 105.079 61.048V61.076H108.075V62ZM98.4847 56.918C98.4847 57.4687 98.5734 57.996 98.7507 58.5C98.928 58.9947 99.1847 59.4333 99.5207 59.816C99.8567 60.1987 100.267 60.5067 100.753 60.74C101.238 60.964 101.789 61.076 102.405 61.076C103.011 61.076 103.557 60.964 104.043 60.74C104.528 60.5067 104.939 60.1987 105.275 59.816C105.611 59.4333 105.867 58.9947 106.045 58.5C106.222 57.996 106.311 57.4687 106.311 56.918C106.311 56.3673 106.222 55.8447 106.045 55.35C105.867 54.846 105.611 54.4027 105.275 54.02C104.939 53.6373 104.528 53.334 104.043 53.11C103.557 52.8767 103.011 52.76 102.405 52.76C101.789 52.76 101.238 52.8767 100.753 53.11C100.267 53.334 99.8567 53.6373 99.5207 54.02C99.1847 54.4027 98.928 54.846 98.7507 55.35C98.5734 55.8447 98.4847 56.3673 98.4847 56.918ZM115.368 62H109.068V60.838L113.016 56.82C113.166 56.6707 113.315 56.512 113.464 56.344C113.614 56.176 113.749 55.9987 113.87 55.812C113.992 55.6253 114.09 55.4293 114.164 55.224C114.239 55.0187 114.276 54.804 114.276 54.58C114.276 54.3093 114.225 54.0667 114.122 53.852C114.029 53.6373 113.894 53.4553 113.716 53.306C113.539 53.1567 113.334 53.0447 113.1 52.97C112.867 52.886 112.62 52.844 112.358 52.844C111.854 52.844 111.425 52.984 111.07 53.264C110.716 53.544 110.487 53.922 110.384 54.398L109.32 54.286C109.46 53.5487 109.796 52.97 110.328 52.55C110.87 52.13 111.523 51.92 112.288 51.92C112.69 51.92 113.068 51.976 113.422 52.088C113.786 52.1907 114.104 52.3493 114.374 52.564C114.654 52.7787 114.874 53.0493 115.032 53.376C115.2 53.6933 115.284 54.0667 115.284 54.496C115.284 54.8787 115.224 55.2287 115.102 55.546C114.99 55.8633 114.841 56.162 114.654 56.442C114.468 56.722 114.253 56.988 114.01 57.24C113.777 57.492 113.534 57.7393 113.282 57.982L110.16 61.076H115.368V62Z" fill="#383B41"/>
<rect x="35.5" y="41.5" width="46" height="32" stroke="#D6D6D6"/>
<path d="M61.1265 62H55.4565C54.7378 62 54.0705 61.874 53.4545 61.622C52.8478 61.37 52.3205 61.02 51.8725 60.572C51.4245 60.1147 51.0745 59.578 50.8225 58.962C50.5705 58.3367 50.4445 57.6553 50.4445 56.918C50.4445 56.1807 50.5705 55.504 50.8225 54.888C51.0745 54.2627 51.4245 53.726 51.8725 53.278C52.3205 52.8207 52.8478 52.466 53.4545 52.214C54.0705 51.962 54.7378 51.836 55.4565 51.836C56.1658 51.836 56.8238 51.962 57.4305 52.214C58.0465 52.466 58.5785 52.8207 59.0265 53.278C59.4745 53.726 59.8245 54.2627 60.0765 54.888C60.3285 55.504 60.4545 56.1807 60.4545 56.918C60.4545 57.814 60.2678 58.6213 59.8945 59.34C59.5305 60.0493 58.9425 60.6187 58.1305 61.048V61.076H61.1265V62ZM51.5365 56.918C51.5365 57.4687 51.6251 57.996 51.8025 58.5C51.9798 58.9947 52.2365 59.4333 52.5725 59.816C52.9085 60.1987 53.3191 60.5067 53.8045 60.74C54.2898 60.964 54.8405 61.076 55.4565 61.076C56.0631 61.076 56.6091 60.964 57.0945 60.74C57.5798 60.5067 57.9905 60.1987 58.3265 59.816C58.6625 59.4333 58.9191 58.9947 59.0965 58.5C59.2738 57.996 59.3625 57.4687 59.3625 56.918C59.3625 56.3673 59.2738 55.8447 59.0965 55.35C58.9191 54.846 58.6625 54.4027 58.3265 54.02C57.9905 53.6373 57.5798 53.334 57.0945 53.11C56.6091 52.8767 56.0631 52.76 55.4565 52.76C54.8405 52.76 54.2898 52.8767 53.8045 53.11C53.3191 53.334 52.9085 53.6373 52.5725 54.02C52.2365 54.4027 51.9798 54.846 51.8025 55.35C51.6251 55.8447 51.5365 56.3673 51.5365 56.918ZM66.3202 62H65.3122V53.348L63.5342 54.916L62.9042 54.16L65.4242 52.088H66.3202V62Z" fill="#383B41"/>
<path d="M6.474 62H0.624V60.921L4.29 57.19C4.42867 57.0513 4.56733 56.904 4.706 56.748C4.84467 56.592 4.97033 56.4273 5.083 56.254C5.19567 56.0807 5.28667 55.8987 5.356 55.708C5.42533 55.5173 5.46 55.318 5.46 55.11C5.46 54.8587 5.41233 54.6333 5.317 54.434C5.23033 54.2347 5.10467 54.0657 4.94 53.927C4.77533 53.7883 4.58467 53.6843 4.368 53.615C4.15133 53.537 3.92167 53.498 3.679 53.498C3.211 53.498 2.81233 53.628 2.483 53.888C2.15367 54.148 1.94133 54.499 1.846 54.941L0.858 54.837C0.988 54.1523 1.3 53.615 1.794 53.225C2.29667 52.835 2.90333 52.64 3.614 52.64C3.98667 52.64 4.33767 52.692 4.667 52.796C5.005 52.8913 5.29967 53.0387 5.551 53.238C5.811 53.4373 6.01467 53.6887 6.162 53.992C6.318 54.2867 6.396 54.6333 6.396 55.032C6.396 55.3873 6.33967 55.7123 6.227 56.007C6.123 56.3017 5.98433 56.579 5.811 56.839C5.63767 57.099 5.43833 57.346 5.213 57.58C4.99633 57.814 4.771 58.0437 4.537 58.269L1.638 61.142H6.474V62ZM10.8376 53.498C10.335 53.498 9.9363 53.6323 9.64163 53.901C9.35563 54.1697 9.13897 54.5033 8.99163 54.902C8.8443 55.3007 8.74897 55.7253 8.70563 56.176C8.67097 56.6267 8.65363 57.034 8.65363 57.398C8.65363 57.762 8.67097 58.1693 8.70563 58.62C8.74897 59.0707 8.8443 59.4953 8.99163 59.894C9.13897 60.2927 9.35563 60.6263 9.64163 60.895C9.9363 61.1637 10.335 61.298 10.8376 61.298C11.3403 61.298 11.7346 61.1637 12.0206 60.895C12.3153 60.6263 12.5363 60.2927 12.6836 59.894C12.831 59.4953 12.922 59.0707 12.9566 58.62C13 58.1693 13.0216 57.762 13.0216 57.398C13.0216 57.034 13 56.6267 12.9566 56.176C12.922 55.7253 12.831 55.3007 12.6836 54.902C12.5363 54.5033 12.3153 54.1697 12.0206 53.901C11.7346 53.6323 11.3403 53.498 10.8376 53.498ZM10.8376 52.64C11.4963 52.64 12.0293 52.7917 12.4366 53.095C12.844 53.3983 13.1603 53.784 13.3856 54.252C13.611 54.72 13.7626 55.2357 13.8406 55.799C13.9186 56.3537 13.9576 56.8867 13.9576 57.398C13.9576 57.9093 13.9186 58.4467 13.8406 59.01C13.7626 59.5647 13.611 60.076 13.3856 60.544C13.1603 61.012 12.844 61.3977 12.4366 61.701C12.0293 62.0043 11.4963 62.156 10.8376 62.156C10.179 62.156 9.64597 62.0043 9.23863 61.701C8.8313 61.3977 8.51497 61.012 8.28963 60.544C8.0643 60.076 7.91263 59.5647 7.83463 59.01C7.75663 58.4467 7.71763 57.9093 7.71763 57.398C7.71763 56.8867 7.75663 56.3537 7.83463 55.799C7.91263 55.2357 8.0643 54.72 8.28963 54.252C8.51497 53.784 8.8313 53.3983 9.23863 53.095C9.64597 52.7917 10.179 52.64 10.8376 52.64ZM18.9713 62H18.0353V53.966L16.3843 55.422L15.7993 54.72L18.1393 52.796H18.9713V62ZM27.2609 59.413C27.2609 59.1443 27.2132 58.8973 27.1179 58.672C27.0226 58.438 26.8882 58.2387 26.7149 58.074C26.5502 57.9007 26.3422 57.7663 26.0909 57.671C25.8482 57.5757 25.5796 57.528 25.2849 57.528C24.9816 57.528 24.7086 57.5757 24.4659 57.671C24.2232 57.7663 24.0152 57.9007 23.8419 58.074C23.6772 58.2387 23.5472 58.438 23.4519 58.672C23.3566 58.8973 23.3089 59.1443 23.3089 59.413C23.3089 59.6817 23.3566 59.933 23.4519 60.167C23.5472 60.3923 23.6772 60.5917 23.8419 60.765C24.0152 60.9297 24.2232 61.0597 24.4659 61.155C24.7086 61.2503 24.9816 61.298 25.2849 61.298C25.5796 61.298 25.8482 61.2503 26.0909 61.155C26.3422 61.0597 26.5502 60.9297 26.7149 60.765C26.8882 60.5917 27.0226 60.3923 27.1179 60.167C27.2132 59.933 27.2609 59.6817 27.2609 59.413ZM26.9229 55.123C26.9229 54.889 26.8796 54.6723 26.7929 54.473C26.7149 54.2737 26.6022 54.1047 26.4549 53.966C26.3076 53.8187 26.1342 53.706 25.9349 53.628C25.7356 53.5413 25.5189 53.498 25.2849 53.498C25.0509 53.498 24.8342 53.5413 24.6349 53.628C24.4356 53.706 24.2622 53.8187 24.1149 53.966C23.9676 54.1047 23.8506 54.2737 23.7639 54.473C23.6859 54.6723 23.6469 54.889 23.6469 55.123C23.6469 55.357 23.6859 55.5737 23.7639 55.773C23.8506 55.9723 23.9676 56.1457 24.1149 56.293C24.2622 56.4317 24.4356 56.5443 24.6349 56.631C24.8342 56.709 25.0509 56.748 25.2849 56.748C25.5189 56.748 25.7356 56.709 25.9349 56.631C26.1342 56.5443 26.3076 56.4317 26.4549 56.293C26.6022 56.1457 26.7149 55.9723 26.7929 55.773C26.8796 55.5737 26.9229 55.357 26.9229 55.123ZM24.0889 57.099C23.8896 57.0297 23.7032 56.93 23.5299 56.8C23.3652 56.6613 23.2222 56.501 23.1009 56.319C22.9796 56.137 22.8842 55.9377 22.8149 55.721C22.7456 55.5043 22.7109 55.279 22.7109 55.045C22.7109 54.681 22.7802 54.3517 22.9189 54.057C23.0576 53.7537 23.2439 53.498 23.4779 53.29C23.7119 53.082 23.9849 52.9217 24.2969 52.809C24.6089 52.6963 24.9382 52.64 25.2849 52.64C25.6316 52.64 25.9609 52.6963 26.2729 52.809C26.5849 52.9217 26.8579 53.082 27.0919 53.29C27.3259 53.498 27.5122 53.7537 27.6509 54.057C27.7896 54.3517 27.8589 54.681 27.8589 55.045C27.8589 55.279 27.8242 55.5043 27.7549 55.721C27.6856 55.9377 27.5902 56.137 27.4689 56.319C27.3476 56.501 27.2002 56.6613 27.0269 56.8C26.8622 56.93 26.6802 57.0297 26.4809 57.099V57.125C27.0009 57.2637 27.4169 57.5497 27.7289 57.983C28.0409 58.4163 28.1969 58.9363 28.1969 59.543C28.1969 59.9417 28.1146 60.3013 27.9499 60.622C27.7939 60.9427 27.5816 61.22 27.3129 61.454C27.0529 61.6793 26.7452 61.8527 26.3899 61.974C26.0432 62.0953 25.6749 62.156 25.2849 62.156C24.8949 62.156 24.5222 62.0953 24.1669 61.974C23.8202 61.8527 23.5126 61.6793 23.2439 61.454C22.9839 61.22 22.7716 60.9427 22.6069 60.622C22.4509 60.3013 22.3729 59.9417 22.3729 59.543C22.3729 58.9363 22.5289 58.4163 22.8409 57.983C23.1529 57.5497 23.5689 57.2637 24.0889 57.125V57.099Z" fill="#2D2F30"/>
<rect x="173.5" y="0.5" width="46" height="32" stroke="#D6D6D6"/>
<path d="M200.075 21H194.405C193.686 21 193.019 20.874 192.403 20.622C191.796 20.37 191.269 20.02 190.821 19.572C190.373 19.1147 190.023 18.578 189.771 17.962C189.519 17.3367 189.393 16.6553 189.393 15.918C189.393 15.1807 189.519 14.504 189.771 13.888C190.023 13.2627 190.373 12.726 190.821 12.278C191.269 11.8207 191.796 11.466 192.403 11.214C193.019 10.962 193.686 10.836 194.405 10.836C195.114 10.836 195.772 10.962 196.379 11.214C196.995 11.466 197.527 11.8207 197.975 12.278C198.423 12.726 198.773 13.2627 199.025 13.888C199.277 14.504 199.403 15.1807 199.403 15.918C199.403 16.814 199.216 17.6213 198.843 18.34C198.479 19.0493 197.891 19.6187 197.079 20.048V20.076H200.075V21ZM190.485 15.918C190.485 16.4687 190.573 16.996 190.751 17.5C190.928 17.9947 191.185 18.4333 191.521 18.816C191.857 19.1987 192.267 19.5067 192.753 19.74C193.238 19.964 193.789 20.076 194.405 20.076C195.011 20.076 195.557 19.964 196.043 19.74C196.528 19.5067 196.939 19.1987 197.275 18.816C197.611 18.4333 197.867 17.9947 198.045 17.5C198.222 16.996 198.311 16.4687 198.311 15.918C198.311 15.3673 198.222 14.8447 198.045 14.35C197.867 13.846 197.611 13.4027 197.275 13.02C196.939 12.6373 196.528 12.334 196.043 12.11C195.557 11.8767 195.011 11.76 194.405 11.76C193.789 11.76 193.238 11.8767 192.753 12.11C192.267 12.334 191.857 12.6373 191.521 13.02C191.185 13.4027 190.928 13.846 190.751 14.35C190.573 14.8447 190.485 15.3673 190.485 15.918ZM205.212 12.096H205.184L201.768 17.724H205.212V12.096ZM206.22 17.724H207.648V18.648H206.22V21H205.212V18.648H200.928V17.5L204.932 11.088H206.22V17.724Z" fill="#383B41"/>
<rect x="127.5" y="0.5" width="46" height="32" stroke="#D6D6D6"/>
<path d="M154.075 21H148.405C147.686 21 147.019 20.874 146.403 20.622C145.796 20.37 145.269 20.02 144.821 19.572C144.373 19.1147 144.023 18.578 143.771 17.962C143.519 17.3367 143.393 16.6553 143.393 15.918C143.393 15.1807 143.519 14.504 143.771 13.888C144.023 13.2627 144.373 12.726 144.821 12.278C145.269 11.8207 145.796 11.466 146.403 11.214C147.019 10.962 147.686 10.836 148.405 10.836C149.114 10.836 149.772 10.962 150.379 11.214C150.995 11.466 151.527 11.8207 151.975 12.278C152.423 12.726 152.773 13.2627 153.025 13.888C153.277 14.504 153.403 15.1807 153.403 15.918C153.403 16.814 153.216 17.6213 152.843 18.34C152.479 19.0493 151.891 19.6187 151.079 20.048V20.076H154.075V21ZM144.485 15.918C144.485 16.4687 144.573 16.996 144.751 17.5C144.928 17.9947 145.185 18.4333 145.521 18.816C145.857 19.1987 146.267 19.5067 146.753 19.74C147.238 19.964 147.789 20.076 148.405 20.076C149.011 20.076 149.557 19.964 150.043 19.74C150.528 19.5067 150.939 19.1987 151.275 18.816C151.611 18.4333 151.867 17.9947 152.045 17.5C152.222 16.996 152.311 16.4687 152.311 15.918C152.311 15.3673 152.222 14.8447 152.045 14.35C151.867 13.846 151.611 13.4027 151.275 13.02C150.939 12.6373 150.528 12.334 150.043 12.11C149.557 11.8767 149.011 11.76 148.405 11.76C147.789 11.76 147.238 11.8767 146.753 12.11C146.267 12.334 145.857 12.6373 145.521 13.02C145.185 13.4027 144.928 13.846 144.751 14.35C144.573 14.8447 144.485 15.3673 144.485 15.918ZM157.252 15.344H157.77C158.06 15.344 158.335 15.3113 158.596 15.246C158.867 15.1807 159.1 15.078 159.296 14.938C159.492 14.7887 159.646 14.5973 159.758 14.364C159.88 14.1307 159.94 13.8507 159.94 13.524C159.94 12.992 159.777 12.5813 159.45 12.292C159.133 11.9933 158.685 11.844 158.106 11.844C157.686 11.844 157.318 11.9373 157 12.124C156.683 12.3107 156.422 12.5813 156.216 12.936L155.334 12.488C155.633 11.956 156.011 11.564 156.468 11.312C156.935 11.0507 157.472 10.92 158.078 10.92C158.47 10.92 158.839 10.976 159.184 11.088C159.53 11.2 159.833 11.368 160.094 11.592C160.356 11.8067 160.561 12.0773 160.71 12.404C160.869 12.7213 160.948 13.0853 160.948 13.496C160.948 13.7667 160.902 14.0233 160.808 14.266C160.724 14.5087 160.603 14.728 160.444 14.924C160.295 15.12 160.118 15.2927 159.912 15.442C159.707 15.582 159.492 15.6893 159.268 15.764L159.31 15.792C159.59 15.848 159.847 15.9553 160.08 16.114C160.314 16.2633 160.514 16.45 160.682 16.674C160.85 16.898 160.981 17.15 161.074 17.43C161.168 17.71 161.214 18.004 161.214 18.312C161.214 18.7693 161.13 19.1753 160.962 19.53C160.794 19.8847 160.566 20.1833 160.276 20.426C159.987 20.6687 159.651 20.8553 159.268 20.986C158.886 21.1073 158.48 21.168 158.05 21.168C157.322 21.168 156.688 21.0093 156.146 20.692C155.605 20.3747 155.199 19.866 154.928 19.166L155.992 18.844C156.16 19.32 156.408 19.6747 156.734 19.908C157.07 20.132 157.537 20.244 158.134 20.244C158.414 20.244 158.68 20.1973 158.932 20.104C159.184 20.0107 159.404 19.88 159.59 19.712C159.786 19.5347 159.936 19.3247 160.038 19.082C160.15 18.8393 160.206 18.5733 160.206 18.284C160.206 17.9107 160.136 17.598 159.996 17.346C159.856 17.0847 159.67 16.8747 159.436 16.716C159.203 16.5573 158.932 16.4453 158.624 16.38C158.326 16.3053 158.013 16.268 157.686 16.268H157.252V15.344Z" fill="#383B41"/>
<rect x="81.5" y="0.5" width="46" height="32" stroke="#D6D6D6"/>
<path d="M108.075 21H102.405C101.686 21 101.019 20.874 100.403 20.622C99.796 20.37 99.2687 20.02 98.8207 19.572C98.3727 19.1147 98.0227 18.578 97.7707 17.962C97.5187 17.3367 97.3927 16.6553 97.3927 15.918C97.3927 15.1807 97.5187 14.504 97.7707 13.888C98.0227 13.2627 98.3727 12.726 98.8207 12.278C99.2687 11.8207 99.796 11.466 100.403 11.214C101.019 10.962 101.686 10.836 102.405 10.836C103.114 10.836 103.772 10.962 104.379 11.214C104.995 11.466 105.527 11.8207 105.975 12.278C106.423 12.726 106.773 13.2627 107.025 13.888C107.277 14.504 107.403 15.1807 107.403 15.918C107.403 16.814 107.216 17.6213 106.843 18.34C106.479 19.0493 105.891 19.6187 105.079 20.048V20.076H108.075V21ZM98.4847 15.918C98.4847 16.4687 98.5734 16.996 98.7507 17.5C98.928 17.9947 99.1847 18.4333 99.5207 18.816C99.8567 19.1987 100.267 19.5067 100.753 19.74C101.238 19.964 101.789 20.076 102.405 20.076C103.011 20.076 103.557 19.964 104.043 19.74C104.528 19.5067 104.939 19.1987 105.275 18.816C105.611 18.4333 105.867 17.9947 106.045 17.5C106.222 16.996 106.311 16.4687 106.311 15.918C106.311 15.3673 106.222 14.8447 106.045 14.35C105.867 13.846 105.611 13.4027 105.275 13.02C104.939 12.6373 104.528 12.334 104.043 12.11C103.557 11.8767 103.011 11.76 102.405 11.76C101.789 11.76 101.238 11.8767 100.753 12.11C100.267 12.334 99.8567 12.6373 99.5207 13.02C99.1847 13.4027 98.928 13.846 98.7507 14.35C98.5734 14.8447 98.4847 15.3673 98.4847 15.918ZM115.368 21H109.068V19.838L113.016 15.82C113.166 15.6707 113.315 15.512 113.464 15.344C113.614 15.176 113.749 14.9987 113.87 14.812C113.992 14.6253 114.09 14.4293 114.164 14.224C114.239 14.0187 114.276 13.804 114.276 13.58C114.276 13.3093 114.225 13.0667 114.122 12.852C114.029 12.6373 113.894 12.4553 113.716 12.306C113.539 12.1567 113.334 12.0447 113.1 11.97C112.867 11.886 112.62 11.844 112.358 11.844C111.854 11.844 111.425 11.984 111.07 12.264C110.716 12.544 110.487 12.922 110.384 13.398L109.32 13.286C109.46 12.5487 109.796 11.97 110.328 11.55C110.87 11.13 111.523 10.92 112.288 10.92C112.69 10.92 113.068 10.976 113.422 11.088C113.786 11.1907 114.104 11.3493 114.374 11.564C114.654 11.7787 114.874 12.0493 115.032 12.376C115.2 12.6933 115.284 13.0667 115.284 13.496C115.284 13.8787 115.224 14.2287 115.102 14.546C114.99 14.8633 114.841 15.162 114.654 15.442C114.468 15.722 114.253 15.988 114.01 16.24C113.777 16.492 113.534 16.7393 113.282 16.982L110.16 20.076H115.368V21Z" fill="#383B41"/>
<rect x="35.5" y="0.5" width="46" height="32" stroke="#D6D6D6"/>
<path d="M61.6265 21H55.9565C55.2378 21 54.5705 20.874 53.9545 20.622C53.3478 20.37 52.8205 20.02 52.3725 19.572C51.9245 19.1147 51.5745 18.578 51.3225 17.962C51.0705 17.3367 50.9445 16.6553 50.9445 15.918C50.9445 15.1807 51.0705 14.504 51.3225 13.888C51.5745 13.2627 51.9245 12.726 52.3725 12.278C52.8205 11.8207 53.3478 11.466 53.9545 11.214C54.5705 10.962 55.2378 10.836 55.9565 10.836C56.6658 10.836 57.3238 10.962 57.9305 11.214C58.5465 11.466 59.0785 11.8207 59.5265 12.278C59.9745 12.726 60.3245 13.2627 60.5765 13.888C60.8285 14.504 60.9545 15.1807 60.9545 15.918C60.9545 16.814 60.7678 17.6213 60.3945 18.34C60.0305 19.0493 59.4425 19.6187 58.6305 20.048V20.076H61.6265V21ZM52.0365 15.918C52.0365 16.4687 52.1251 16.996 52.3025 17.5C52.4798 17.9947 52.7365 18.4333 53.0725 18.816C53.4085 19.1987 53.8191 19.5067 54.3045 19.74C54.7898 19.964 55.3405 20.076 55.9565 20.076C56.5631 20.076 57.1091 19.964 57.5945 19.74C58.0798 19.5067 58.4905 19.1987 58.8265 18.816C59.1625 18.4333 59.4191 17.9947 59.5965 17.5C59.7738 16.996 59.8625 16.4687 59.8625 15.918C59.8625 15.3673 59.7738 14.8447 59.5965 14.35C59.4191 13.846 59.1625 13.4027 58.8265 13.02C58.4905 12.6373 58.0798 12.334 57.5945 12.11C57.1091 11.8767 56.5631 11.76 55.9565 11.76C55.3405 11.76 54.7898 11.8767 54.3045 12.11C53.8191 12.334 53.4085 12.6373 53.0725 13.02C52.7365 13.4027 52.4798 13.846 52.3025 14.35C52.1251 14.8447 52.0365 15.3673 52.0365 15.918ZM66.8202 21H65.8122V12.348L64.0342 13.916L63.4042 13.16L65.9242 11.088H66.8202V21Z" fill="#2D2F30"/>
<path d="M6.474 21H0.624V19.921L4.29 16.19C4.42867 16.0513 4.56733 15.904 4.706 15.748C4.84467 15.592 4.97033 15.4273 5.083 15.254C5.19567 15.0807 5.28667 14.8987 5.356 14.708C5.42533 14.5173 5.46 14.318 5.46 14.11C5.46 13.8587 5.41233 13.6333 5.317 13.434C5.23033 13.2347 5.10467 13.0657 4.94 12.927C4.77533 12.7883 4.58467 12.6843 4.368 12.615C4.15133 12.537 3.92167 12.498 3.679 12.498C3.211 12.498 2.81233 12.628 2.483 12.888C2.15367 13.148 1.94133 13.499 1.846 13.941L0.858 13.837C0.988 13.1523 1.3 12.615 1.794 12.225C2.29667 11.835 2.90333 11.64 3.614 11.64C3.98667 11.64 4.33767 11.692 4.667 11.796C5.005 11.8913 5.29967 12.0387 5.551 12.238C5.811 12.4373 6.01467 12.6887 6.162 12.992C6.318 13.2867 6.396 13.6333 6.396 14.032C6.396 14.3873 6.33967 14.7123 6.227 15.007C6.123 15.3017 5.98433 15.579 5.811 15.839C5.63767 16.099 5.43833 16.346 5.213 16.58C4.99633 16.814 4.771 17.0437 4.537 17.269L1.638 20.142H6.474V21ZM10.8376 12.498C10.335 12.498 9.9363 12.6323 9.64163 12.901C9.35563 13.1697 9.13897 13.5033 8.99163 13.902C8.8443 14.3007 8.74897 14.7253 8.70563 15.176C8.67097 15.6267 8.65363 16.034 8.65363 16.398C8.65363 16.762 8.67097 17.1693 8.70563 17.62C8.74897 18.0707 8.8443 18.4953 8.99163 18.894C9.13897 19.2927 9.35563 19.6263 9.64163 19.895C9.9363 20.1637 10.335 20.298 10.8376 20.298C11.3403 20.298 11.7346 20.1637 12.0206 19.895C12.3153 19.6263 12.5363 19.2927 12.6836 18.894C12.831 18.4953 12.922 18.0707 12.9566 17.62C13 17.1693 13.0216 16.762 13.0216 16.398C13.0216 16.034 13 15.6267 12.9566 15.176C12.922 14.7253 12.831 14.3007 12.6836 13.902C12.5363 13.5033 12.3153 13.1697 12.0206 12.901C11.7346 12.6323 11.3403 12.498 10.8376 12.498ZM10.8376 11.64C11.4963 11.64 12.0293 11.7917 12.4366 12.095C12.844 12.3983 13.1603 12.784 13.3856 13.252C13.611 13.72 13.7626 14.2357 13.8406 14.799C13.9186 15.3537 13.9576 15.8867 13.9576 16.398C13.9576 16.9093 13.9186 17.4467 13.8406 18.01C13.7626 18.5647 13.611 19.076 13.3856 19.544C13.1603 20.012 12.844 20.3977 12.4366 20.701C12.0293 21.0043 11.4963 21.156 10.8376 21.156C10.179 21.156 9.64597 21.0043 9.23863 20.701C8.8313 20.3977 8.51497 20.012 8.28963 19.544C8.0643 19.076 7.91263 18.5647 7.83463 18.01C7.75663 17.4467 7.71763 16.9093 7.71763 16.398C7.71763 15.8867 7.75663 15.3537 7.83463 14.799C7.91263 14.2357 8.0643 13.72 8.28963 13.252C8.51497 12.784 8.8313 12.3983 9.23863 12.095C9.64597 11.7917 10.179 11.64 10.8376 11.64ZM18.9713 21H18.0353V12.966L16.3843 14.422L15.7993 13.72L18.1393 11.796H18.9713V21ZM27.3389 14.487C27.3389 14.1923 27.2869 13.9237 27.1829 13.681C27.0876 13.4383 26.9489 13.2303 26.7669 13.057C26.5849 12.8837 26.3682 12.7493 26.1169 12.654C25.8656 12.55 25.5882 12.498 25.2849 12.498C24.9816 12.498 24.7042 12.55 24.4529 12.654C24.2016 12.7493 23.9849 12.8837 23.8029 13.057C23.6209 13.2303 23.4779 13.4383 23.3739 13.681C23.2786 13.9237 23.2309 14.1923 23.2309 14.487C23.2309 14.7817 23.2786 15.0503 23.3739 15.293C23.4779 15.5357 23.6209 15.748 23.8029 15.93C23.9849 16.1033 24.2016 16.2377 24.4529 16.333C24.7042 16.4283 24.9816 16.476 25.2849 16.476C25.5882 16.476 25.8656 16.4283 26.1169 16.333C26.3682 16.2377 26.5849 16.1033 26.7669 15.93C26.9489 15.748 27.0876 15.5357 27.1829 15.293C27.2869 15.0503 27.3389 14.7817 27.3389 14.487ZM26.4029 17.048L26.3769 17.022C26.2296 17.126 26.0302 17.204 25.7789 17.256C25.5362 17.308 25.3109 17.334 25.1029 17.334C24.7042 17.334 24.3316 17.2647 23.9849 17.126C23.6469 16.9787 23.3522 16.7793 23.1009 16.528C22.8496 16.2767 22.6502 15.9777 22.5029 15.631C22.3642 15.2843 22.2949 14.903 22.2949 14.487C22.2949 14.0623 22.3686 13.6767 22.5159 13.33C22.6632 12.9833 22.8712 12.6843 23.1399 12.433C23.4086 12.1817 23.7249 11.9867 24.0889 11.848C24.4529 11.7093 24.8516 11.64 25.2849 11.64C25.7182 11.64 26.1169 11.7093 26.4809 11.848C26.8449 11.9867 27.1612 12.1817 27.4299 12.433C27.6986 12.6843 27.9066 12.9833 28.0539 13.33C28.2012 13.6767 28.2749 14.0623 28.2749 14.487C28.2749 14.9983 28.1969 15.4447 28.0409 15.826C27.8936 16.2073 27.7072 16.5843 27.4819 16.957L24.9989 21H23.8939L26.4029 17.048Z" fill="#2D2F30"/>
</svg>
