<svg width="12" height="11" viewBox="0 0 12 11" fill="none" xmlns="http://www.w3.org/2000/svg">
<path fill-rule="evenodd" clip-rule="evenodd" d="M10.9336 1.438C10.8153 1.16787 10.5648 1 10.2803 1H1.71971C1.4351 1 1.18476 1.16787 1.06632 1.438C0.948831 1.70587 0.989422 2.01162 1.17238 2.23612L4.57159 6.389V9.625C4.57159 9.76325 4.64408 9.89038 4.76026 9.95575C4.81288 9.98538 4.87097 10 4.9287 10C4.99798 10 5.06702 9.97875 5.12678 9.937L7.26944 8.437C7.36883 8.36737 7.42847 8.25038 7.42847 8.125V6.389L10.8277 2.23612C11.0105 2.01162 11.0512 1.70587 10.9336 1.438Z" stroke="#6D6D6D"/>
</svg>
